# xmcd
#
# Track frame offsets:
#	150
#	15005
#	30996
#	48915
#	64869
#	81021
#	95251
#	111797
#	124299
#	143603
#	158968
#
# Disc length: 2317 seconds
#
# Revision: 1
# Processed by: cddbd v1.5.2PL0 Copyright (c) Steve Scherf et al.
# Submitted via: audiograbber 1.83.01
#
DISCID=7b090b0b
DTITLE=Daryle Singletary - There's Still a Little Country Left
DYEAR=2015
DGENRE=Country
TTITLE0=Get Out of My Country
TTITLE1=Say Hello to Heaven
TTITLE2=Sunday Mornin Kind of Town
TTITLE3=Spilled Whiskey
TTITLE4=Like Family
TTITLE5=So Much Different Than Before
TTITLE6=Enough to Lie to Me
TTITLE7=Wanna Be That Feeling
TTITLE8=Too Late to Save the World
TTITLE9=There's Still a Little Country Left
TTITLE10=The Only Hell My Mama Ever Raised (Bonus Track) [with Johnny Paycheck]
TTITLE10=(Bonus Track)
EXTD=
EXTT0=
EXTT1=
EXTT2=
EXTT3=
EXTT4=
EXTT5=
EXTT6=
EXTT7=
EXTT8=
EXTT9=
EXTT10=
PLAYORDER=
